<svg version="1.1" id="Layer_1" xmlns="http://www.w3.org/2000/svg" xmlns:xlink="http://www.w3.org/1999/xlink" x="0px" y="0px"
	 width="100%" viewBox="240 150 530 570" enable-background="new 0 0 1024 1024" xml:space="preserve">
<path fill="#000000" opacity="1.000000" stroke="none"
	d="
M507.654694,215.838547
	C508.608398,198.331116 509.832855,181.323792 512.452087,164.355560
	C515.222534,168.793732 514.624634,173.931366 515.046143,178.622009
	C517.725159,208.433136 519.310303,238.320633 520.346497,268.239380
	C521.892151,312.870941 520.766296,357.521240 521.497986,402.151978
	C521.825623,422.138092 521.901794,442.124084 522.085083,462.108948
	C522.125549,466.518951 523.566895,467.827942 527.898987,467.732544
	C540.222778,467.461212 552.561340,467.813721 564.882080,467.477753
	C569.548950,467.350525 570.068787,469.580902 570.023682,473.223907
	C569.977722,476.933441 570.172241,480.210571 564.804138,480.183929
	C530.816406,480.015045 496.827728,480.045868 462.839691,479.917969
	C457.329010,479.897217 454.294769,474.044189 457.017181,469.109100
	C458.166595,467.025452 460.223480,467.691589 461.937592,467.682892
	C474.100067,467.621124 486.267395,467.459564 498.423553,467.742920
	C503.171967,467.853607 504.739807,466.449524 504.732605,461.561554
	C504.663391,414.577179 504.747192,367.592163 504.948425,320.608032
	C505.043243,298.468048 505.331421,276.325989 505.836578,254.191833
	C506.124908,241.558334 507.025970,228.938843 507.654694,215.838547
z"/>
<path fill="#000000" opacity="1.000000" stroke="none"
	d="
M596.510681,641.944153
	C578.568176,643.314819 561.957336,641.029846 546.970093,630.910583
	C518.822815,611.905884 519.007690,570.077515 547.450867,551.556458
	C570.967285,536.243530 604.283081,536.763184 627.055969,552.798096
	C656.226074,573.337463 652.347961,619.426086 620.220276,634.817078
	C612.796143,638.373718 605.115051,640.837036 596.510681,641.944153
M621.019104,609.462280
	C624.535522,599.788330 624.617065,589.869385 622.557129,579.968445
	C618.991333,562.830444 604.313416,550.745239 587.065979,550.360718
	C569.871033,549.977295 555.489990,560.758850 550.943054,577.563110
	C549.005798,584.722778 549.315369,591.917664 550.190369,599.280273
	C552.198914,616.182007 565.164917,629.777893 583.247864,632.354187
	C598.562805,634.536133 615.019287,625.367371 621.019104,609.462280
z"/>
<path fill="#000000" opacity="1.000000" stroke="none"
	d="
M274.000610,544.672119
	C285.312408,544.688232 296.138489,544.360840 306.825836,546.605591
	C310.108704,547.295044 313.205963,548.430481 316.282318,549.706604
	C330.414459,555.568787 331.195312,575.852112 319.421143,582.651123
	C317.007721,584.044739 314.686615,585.598206 311.822632,587.391235
	C315.840668,589.301697 319.489166,590.770935 322.880096,592.694214
	C338.270142,601.423340 338.525208,622.443420 323.386414,631.703003
	C316.552399,635.882935 308.861206,637.483398 301.059753,638.196655
	C287.279266,639.456604 273.442749,638.909424 259.624451,638.930176
	C255.702682,638.936096 254.516846,637.374390 254.534607,633.556580
	C254.663956,605.749939 254.680893,577.942261 254.557083,550.135681
	C254.538818,546.032837 255.866135,544.399780 260.013275,544.626587
	C264.496490,544.871765 269.003845,544.675842 274.000610,544.672119
M276.346252,618.425781
	C276.343323,619.756775 276.475433,621.104492 276.313202,622.415771
	C275.738342,627.062744 277.380402,629.060486 282.374725,628.759766
	C287.015411,628.480225 291.659637,628.456482 296.260284,627.649902
	C304.494965,626.206177 310.138336,620.618652 310.642212,613.340515
	C311.274658,604.204163 306.981079,597.954651 298.267181,595.293518
	C292.637329,593.574280 286.878571,593.238159 281.022919,593.298157
	C277.623047,593.333069 276.220978,594.509949 276.307129,597.983459
	C276.467926,604.468018 276.349579,610.959412 276.346252,618.425781
M298.239624,557.121521
	C292.376160,554.063904 286.032135,554.323059 279.706116,554.413696
	C277.059662,554.451660 276.325745,555.995605 276.350067,558.329285
	C276.389954,562.158508 276.350220,565.988647 276.349274,569.818359
	C276.345337,585.671204 276.422333,585.714600 292.206451,582.806641
	C298.067993,581.726746 302.652405,578.888062 304.185730,572.933472
	C305.755280,566.838013 304.324219,561.372070 298.239624,557.121521
z"/>
<path fill="#000000" opacity="1.000000" stroke="none"
	d="
M501.546692,559.539062
	C502.345398,573.989868 502.195892,587.996399 501.665924,601.965271
	C501.279938,612.139465 502.511292,622.274109 501.732361,632.421875
	C501.232697,638.930908 500.937775,638.694092 494.663940,638.947144
	C487.443939,639.238342 482.890533,635.949951 478.212921,630.806824
	C460.507080,611.338867 442.310608,592.317139 424.285004,573.140381
	C423.966156,572.801147 423.488892,572.610779 423.009491,572.302002
	C421.731781,573.820007 422.339508,575.542664 422.335541,577.107788
	C422.288055,595.769104 422.144745,614.432800 422.402954,633.090637
	C422.470978,638.006531 420.368774,639.028503 416.153503,639.000488
	C412.078308,638.973328 409.629364,638.247253 409.657990,633.234253
	C409.816925,605.409607 409.747559,577.583252 409.634705,549.757935
	C409.620178,546.176880 410.749573,544.363831 414.488647,544.714172
	C414.818726,544.745178 415.160522,544.753357 415.487030,544.705322
	C424.024261,543.449341 430.297211,546.295593 436.285370,552.974609
	C452.291412,570.827087 469.160217,587.906189 485.704346,605.275269
	C486.596191,606.211609 487.194061,607.533447 488.765259,607.845825
	C490.385559,606.394653 489.605499,604.448364 489.611847,602.764282
	C489.677277,585.436035 489.638611,568.107300 489.657745,550.778748
	C489.663696,545.390015 495.075836,542.445740 499.878510,545.131775
	C501.320251,545.938110 501.303558,547.270264 501.336670,548.579590
	C501.425140,552.076660 501.448822,555.575439 501.546692,559.539062
z"/>
<path fill="#000000" opacity="1.000000" stroke="none"
	d="
M413.386047,355.620972
	C415.149414,376.116211 421.475830,394.489594 434.008728,410.339020
	C447.691376,427.642517 464.895966,439.981598 486.452271,445.774353
	C491.194000,447.048615 493.101562,453.046051 490.179688,457.064941
	C488.859985,458.880127 487.281158,458.050507 485.690582,457.697601
	C464.678650,453.035919 446.457489,443.003937 430.970764,428.262024
	C410.176086,408.467407 399.378937,384.025238 397.521210,355.299347
	C395.782410,328.411987 402.505615,304.123657 418.723053,282.780090
	C436.018616,260.017578 459.316956,246.261841 487.043579,239.890579
	C489.164246,239.403275 492.092194,238.021255 493.026703,242.007919
	C494.221619,247.105530 492.939087,250.517166 488.922394,251.447464
	C463.519836,257.330841 443.783142,271.508606 429.331238,292.915344
	C416.675323,311.661804 412.503448,332.821777 413.386047,355.620972
z"/>
<path fill="#000000" opacity="1.000000" stroke="none"
	d="
M599.998413,423.986511
	C583.335205,441.248016 563.619324,452.372345 540.503784,457.390106
	C538.419861,457.842499 535.354004,459.424957 535.135803,455.564575
	C534.955078,452.368561 532.551941,448.085175 538.152466,446.472748
	C543.906189,444.816193 549.653931,443.053040 555.052551,440.397186
	C590.064453,423.172852 609.830994,395.355530 612.810242,356.251526
	C615.311768,323.417755 603.952271,295.759430 579.824768,273.594116
	C568.796265,263.462524 555.742981,256.353912 541.147278,252.465103
	C531.830139,249.982697 531.707336,249.941452 533.045105,240.332184
	C552.302124,235.732742 597.802551,264.894745 613.473389,291.879974
	C638.961731,335.771057 633.790894,387.298126 599.998413,423.986511
z"/>
<path fill="#000000" opacity="1.000000" stroke="none"
	d="
M733.276733,590.823547
	C741.706299,606.326294 748.464478,622.260559 757.412720,637.267944
	C753.806763,639.854370 750.217651,638.886963 746.906738,638.822937
	C729.051636,638.477783 734.212952,641.182800 726.611328,625.823181
	C724.766724,622.096069 722.842285,618.404358 721.132507,614.616089
	C720.046265,612.209229 718.483521,611.034668 715.772949,611.055542
	C704.954163,611.138916 694.133911,611.171631 683.315491,611.075012
	C680.465515,611.049561 679.127808,612.521179 678.139893,614.847351
	C675.409729,621.275513 672.471069,627.620361 669.930786,634.121643
	C668.734009,637.184631 667.135864,638.907837 663.715027,638.401428
	C660.320740,637.898987 656.820190,639.585510 653.147705,637.952026
	C653.299927,635.139648 654.872131,632.915833 655.915039,630.566895
	C667.930969,603.501648 680.545288,576.713440 693.377197,550.027222
	C695.228088,546.178040 704.606262,542.154663 708.570557,543.373169
	C710.295593,543.903381 710.575745,545.484497 711.223267,546.773376
	C718.539917,561.336365 725.827209,575.914124 733.276733,590.823547
M688.330811,599.659119
	C696.539856,599.659119 704.748901,599.659119 714.096375,599.659119
	C708.674377,588.423950 703.814087,578.352722 698.588562,567.524719
	C693.236145,577.412659 689.569519,587.007812 685.546631,596.435913
	C684.750366,598.302063 685.017639,599.744934 688.330811,599.659119
z"/>
<path fill="#000000" opacity="1.000000" stroke="none"
	d="
M356.700439,573.000000
	C356.703003,565.011597 356.831421,557.520264 356.656219,550.036011
	C356.567993,546.265625 357.804810,544.463684 361.792389,544.664307
	C365.775970,544.864807 369.783569,544.837280 373.769714,544.661987
	C377.285736,544.507324 378.371429,546.061096 378.362610,549.422119
	C378.288696,577.545105 378.281311,605.668518 378.391083,633.791260
	C378.405243,637.420776 377.049072,638.750122 373.515625,639.018494
	C356.708313,640.295349 356.713745,640.360901 356.710968,623.921997
	C356.708130,607.114685 356.704254,590.307312 356.700439,573.000000
z"/>
<path fill="#000000" opacity="1.000000" stroke="none"
	d="
M526.643188,678.337036
	C526.657654,675.917786 526.749939,673.914673 526.656677,671.920288
	C526.518677,668.967651 527.772339,667.705200 530.782532,667.726013
	C533.801086,667.746887 534.351685,669.413879 534.343262,671.905579
	C534.306641,682.734680 534.243164,693.565063 534.373718,704.392700
	C534.421997,708.397888 532.446350,709.605164 529.074951,708.572144
	C526.712463,707.848328 524.709595,707.880798 522.380493,708.663330
	C517.302429,710.369141 512.705505,709.037537 509.232178,705.065613
	C505.114075,700.356323 504.593292,694.784180 507.027710,689.153625
	C509.112366,684.331970 512.916077,681.607788 518.378784,681.663391
	C520.210693,681.682068 522.056213,681.613525 523.870483,681.812683
	C526.342102,682.084045 526.627197,680.597412 526.643188,678.337036
M514.526550,698.975769
	C516.561523,702.650757 519.754456,703.896606 523.320557,701.917847
	C527.093872,699.824158 527.247925,695.996887 526.075928,692.236450
	C524.984619,688.734985 522.154846,687.895508 518.900696,688.384583
	C514.899719,688.985962 513.179932,692.855164 514.526550,698.975769
z"/>
<path fill="#000000" opacity="1.000000" stroke="none"
	d="
M439.361267,677.282166
	C437.735352,679.634155 436.272766,678.069519 434.811401,677.576599
	C432.277618,676.721985 429.743805,675.814026 427.021912,676.665039
	C425.377045,677.179260 423.819000,677.951843 423.564941,679.862610
	C423.310333,681.777466 424.497864,683.061829 426.116669,683.741638
	C428.719391,684.834656 431.412628,685.711121 434.061493,686.695618
	C439.966827,688.890320 442.377960,692.116272 442.336914,697.743652
	C442.297882,703.093262 440.003815,706.104980 434.075195,708.218201
	C428.625946,710.160522 423.249756,709.620667 418.041016,707.247314
	C415.736328,706.197266 414.102600,704.899414 415.454987,701.854675
	C416.815796,698.790955 418.607819,699.788147 420.703003,700.729553
	C424.241608,702.319275 427.864319,703.684875 431.684204,701.542542
	C435.099579,699.627075 435.298859,696.520325 431.873871,694.641663
	C428.977661,693.053040 425.722046,692.133362 422.679321,690.795349
	C416.730865,688.179565 414.193298,684.486633 414.751862,679.462524
	C415.272430,674.780334 418.593964,671.675903 424.548096,670.190552
	C428.925903,669.098389 433.149323,669.811768 437.303467,671.197754
	C440.287781,672.193420 441.216827,674.108887 439.361267,677.282166
z"/>
<path fill="#000000" opacity="1.000000" stroke="none"
	d="
M562.347168,685.308960
	C567.053833,681.104004 572.373901,680.945190 577.665405,682.114685
	C585.254883,683.791992 589.260437,691.278503 587.243164,699.187256
	C585.425842,706.312256 576.676331,710.909973 568.877502,708.838318
	C558.099670,705.975281 555.044189,695.522888 562.347168,685.308960
M566.857727,698.450317
	C568.640015,702.622864 571.901733,703.860840 575.786499,702.038086
	C579.683838,700.209412 580.439087,696.501038 579.269653,692.642273
	C578.119751,688.847900 575.059998,687.462952 571.389648,688.281189
	C566.223083,689.432983 566.021729,693.462402 566.857727,698.450317
z"/>
<path fill="#000000" opacity="1.000000" stroke="none"
	d="
M479.904785,708.652344
	C475.198120,707.042114 473.121338,703.769287 472.862488,699.469543
	C472.583130,694.829529 472.775299,690.162231 472.716461,685.507446
	C472.680908,682.692566 474.185303,681.784546 476.795044,681.735596
	C479.553833,681.683960 480.801727,683.017517 480.870026,685.593140
	C480.971375,689.415283 480.909607,693.242004 481.031525,697.063232
	C481.121490,699.883667 481.728302,702.466248 485.278229,702.734253
	C488.754089,702.996704 490.786255,700.958679 491.198914,697.913452
	C491.730591,693.989685 491.649933,689.968628 491.638153,685.990112
	C491.629486,683.057251 492.812744,681.732727 495.800720,681.798157
	C498.800812,681.863953 499.319458,683.678833 499.303467,686.104980
	C499.262970,692.257385 499.254852,698.409912 499.238861,704.562439
	C499.233154,706.756775 498.581207,709.231628 496.090576,708.510498
	C491.888855,707.293823 488.152649,708.799927 484.214600,709.244629
	C482.936127,709.388916 481.594482,708.973389 479.904785,708.652344
z"/>
<path fill="#000000" opacity="1.000000" stroke="none"
	d="
M581.778076,527.252441
	C578.104126,523.482300 574.372986,520.232605 570.811462,514.952454
	C579.053711,514.573303 586.201660,514.465820 593.366699,515.009888
	C593.941528,515.053650 594.663086,515.545227 594.995056,516.043030
	C598.525452,521.336853 601.990784,526.673950 606.223206,533.144531
	C596.632874,532.858093 588.049194,535.963074 581.778076,527.252441
z"/>
<path fill="#000000" opacity="1.000000" stroke="none"
	d="
M459.000427,700.615845
	C459.982635,702.606262 461.424011,702.673828 463.001556,702.538574
	C465.403687,702.332703 465.536560,704.371399 465.949127,705.860474
	C466.506592,707.872375 464.838318,708.370544 463.408264,708.857178
	C457.424988,710.893188 451.732239,707.487244 450.855896,701.198242
	C450.536591,698.906555 450.745026,696.544067 450.663635,694.215576
	C450.574677,691.671387 451.423492,688.821899 447.723846,687.705688
	C446.300934,687.276367 446.186646,684.748108 446.852844,684.239380
	C450.787201,681.234924 449.996552,673.247375 457.638611,674.152344
	C458.871124,674.940735 458.539429,676.449829 458.695740,677.669983
	C459.004211,680.078491 459.671722,681.827759 462.576721,681.789795
	C464.314270,681.767029 465.319885,682.767944 465.383575,684.602844
	C465.431732,685.989197 465.419678,687.784302 463.830505,687.831421
	C457.149231,688.029419 458.580872,692.872070 458.455139,696.816406
	C458.418610,697.961792 458.704407,699.117371 459.000427,700.615845
z"/>
<path fill="#000000" opacity="1.000000" stroke="none"
	d="
M551.293091,704.569153
	C551.408752,708.263977 549.446716,708.791016 546.761169,708.670532
	C544.074463,708.549927 543.572083,707.031555 543.604126,704.727051
	C543.691650,698.442444 543.666626,692.155945 543.642578,685.870361
	C543.633362,683.453552 544.084229,681.718689 547.132874,681.680908
	C550.103882,681.644043 551.352356,682.818481 551.319763,685.759583
	C551.251892,691.879028 551.303223,697.999756 551.293091,704.569153
z"/>
<path fill="#000000" opacity="1.000000" stroke="none"
	d="
M543.768921,671.735229
	C547.934692,669.032959 550.834961,669.740479 551.597778,673.228394
	C551.996155,675.050232 551.413574,676.493896 549.932983,677.526611
	C548.442566,678.566223 546.739685,678.595276 545.280029,677.636047
	C543.284363,676.324463 542.537842,674.425354 543.768921,671.735229
z"/>
</svg>
