<svg version="1.1" id="Layer_1" xmlns="http://www.w3.org/2000/svg" xmlns:xlink="http://www.w3.org/1999/xlink" x="0px" y="0px"
	 width="100%" viewBox="0 0 512 384" enable-background="new 0 0 512 384" xml:space="preserve">
<path fill="#000000" opacity="1.000000" stroke="none" 
	d="
M305.423462,176.476562 
	C312.522614,174.115723 318.473907,170.481247 324.024323,166.171295 
	C328.648529,162.580505 328.554230,161.473679 324.145966,157.287872 
	C314.848297,148.459473 304.005157,142.682068 291.377197,140.289429 
	C289.944977,140.018066 288.564362,139.474472 286.912262,138.983566 
	C287.523865,135.316345 288.376312,131.922989 288.580811,128.491028 
	C288.781403,125.123993 290.102112,124.145531 293.305145,124.791664 
	C316.540039,129.478729 334.189148,142.498291 348.104523,161.215271 
	C350.094818,163.892303 348.450775,165.598145 346.935425,167.298859 
	C333.609436,182.255280 317.300659,191.652512 297.236328,194.428360 
	C272.292114,197.879364 243.443405,185.127258 231.880859,158.582611 
	C230.628433,155.707352 230.403214,153.544861 232.121262,150.756500 
	C238.998764,139.594543 248.330414,131.445953 260.556030,126.672318 
	C262.698181,125.835899 264.819702,124.723137 267.257416,125.226303 
	C268.892334,132.517883 265.569672,139.545441 259.732910,143.633667 
	C245.635773,153.507706 244.930908,155.583542 257.743317,167.466965 
	C271.174805,179.924561 287.758148,181.374008 305.423462,176.476562 
z"/>
<path fill="#000000" opacity="1.000000" stroke="none" 
	d="
M270.314606,98.825081 
	C267.906616,87.426651 263.040649,77.713295 256.012909,68.995453 
	C253.781586,66.227531 252.066223,66.011497 249.754181,68.867226 
	C238.317337,82.993362 233.287964,99.084175 234.699097,117.186066 
	C234.892776,119.670418 234.634079,122.500893 235.736954,124.551453 
	C241.513901,135.292480 234.849655,142.203537 228.605896,149.355103 
	C227.219666,149.143021 226.846039,147.992615 226.427307,146.926392 
	C217.959457,125.364182 216.202255,103.580727 224.920029,81.686401 
	C230.371246,67.995941 239.248367,56.609234 249.939041,46.564049 
	C251.896515,44.724754 253.506531,44.583946 255.492386,46.455452 
	C273.864410,63.769527 286.132477,83.946701 286.424744,110.126678 
	C286.646362,129.978180 282.273468,148.414230 271.121979,165.021423 
	C269.930786,166.795395 268.825378,168.694443 266.850861,169.751755 
	C264.986023,169.593750 263.854187,168.259384 262.555695,167.289566 
	C254.466324,161.247665 254.675049,161.353424 259.861908,152.992081 
	C270.123810,136.449722 272.949829,118.350029 270.314606,98.825081 
z"/>
<path fill="#000000" opacity="1.000000" stroke="none" 
	d="
M254.680359,256.359253 
	C259.904114,262.981842 264.259888,269.850586 271.008087,276.670593 
	C271.008087,268.850433 271.009735,262.268738 271.007599,255.687042 
	C271.005676,249.690155 271.171753,243.686813 270.946960,237.698196 
	C270.722778,231.725174 274.804779,232.783188 278.392242,232.653030 
	C281.906525,232.525543 284.427460,232.790009 284.372650,237.549713 
	C284.157776,256.204468 284.208954,274.863434 284.321320,293.519836 
	C284.343414,297.193542 282.968933,298.178131 279.382141,298.529968 
	C272.691986,299.186218 268.293457,296.873749 264.395050,291.326080 
	C256.165070,279.614258 247.257996,268.377991 238.612289,256.959045 
	C237.922028,256.047363 237.105286,255.231400 236.166779,254.165985 
	C234.824387,255.833450 235.405090,257.539581 235.395248,259.050873 
	C235.320480,270.544586 235.138718,282.044037 235.422409,293.531006 
	C235.564911,299.300995 231.868500,298.305298 228.458542,298.425049 
	C225.064102,298.544189 222.428375,298.604370 222.496857,293.660095 
	C222.757523,274.839966 222.680191,256.013397 222.533005,237.190781 
	C222.505234,233.639221 223.779205,232.806656 227.143280,232.560150 
	C233.471558,232.096436 238.138107,233.541809 241.723175,239.425598 
	C245.338852,245.359634 250.166260,250.555344 254.680359,256.359253 
z"/>
<path fill="#000000" opacity="1.000000" stroke="none" 
	d="
M326.486084,231.221634 
	C346.026001,230.523544 360.854492,240.137970 365.196075,255.982483 
	C372.393250,282.248566 350.939789,304.246002 322.698975,299.393921 
	C309.286224,297.089539 299.815308,289.583832 295.645477,276.479065 
	C291.405579,263.154083 294.179321,251.130676 304.124725,241.093719 
	C310.124207,235.039017 317.775269,232.398239 326.486084,231.221634 
M350.764008,255.905731 
	C345.542694,246.242432 337.746613,242.093674 326.924377,243.219162 
	C314.201202,244.542343 305.943146,256.517761 308.274567,270.264252 
	C310.281677,282.098633 322.656616,290.530609 334.238434,287.955414 
	C349.506622,284.560516 356.116028,272.261536 350.764008,255.905731 
z"/>
<path fill="#000000" opacity="1.000000" stroke="none" 
	d="
M125.703568,236.194092 
	C125.747765,233.619049 126.917542,232.694519 128.895004,232.747269 
	C140.524139,233.057404 152.223068,231.529129 163.776199,233.665863 
	C175.401443,235.815918 181.315796,241.558777 182.990326,251.726242 
	C184.665543,261.897919 180.563248,269.432007 170.189224,275.267517 
	C169.770309,275.503143 169.419891,275.860504 168.348236,276.703217 
	C173.565063,283.457245 178.762146,290.185730 184.051895,297.034180 
	C175.475876,300.521423 168.428329,298.774384 163.521179,292.379242 
	C161.393768,289.606720 158.809509,287.114410 157.084045,284.119568 
	C154.206833,279.125580 150.155869,277.738068 144.642807,277.984741 
	C140.648544,278.163483 138.744873,279.197876 139.093124,283.416992 
	C139.311554,286.063385 139.118423,288.743774 139.109711,291.408905 
	C139.089264,297.665192 133.008240,301.069366 127.297363,298.005737 
	C124.996338,296.771332 125.719841,294.512268 125.714005,292.644257 
	C125.655708,273.988312 125.681290,255.332092 125.703568,236.194092 
M164.331512,245.972412 
	C157.115112,242.908127 149.551071,244.637909 142.134323,244.412491 
	C140.084167,244.350174 139.261154,245.850220 139.248123,247.751694 
	C139.212769,252.909988 139.216034,258.068542 139.200455,263.226990 
	C139.194626,265.157898 139.930817,266.537689 142.051437,266.516663 
	C148.028412,266.457458 154.025574,267.103394 159.978088,266.109802 
	C164.884262,265.290894 168.285278,262.594269 169.368362,257.672394 
	C170.382309,253.064758 169.092575,249.102127 164.331512,245.972412 
z"/>
<path fill="#000000" opacity="1.000000" stroke="none" 
	d="
M208.775635,141.808685 
	C197.692657,144.953964 188.920853,151.091324 180.951096,158.643036 
	C178.176544,161.272034 178.403214,163.024292 181.291504,165.398102 
	C195.733215,177.267380 212.035583,181.763443 230.289825,177.441132 
	C235.330399,176.247574 239.181366,176.202026 242.455750,180.603821 
	C244.125305,182.848221 247.227356,183.597839 249.026154,186.388031 
	C246.536575,189.095047 243.205032,190.128113 239.961304,191.135498 
	C210.647095,200.239609 185.377686,192.604523 163.849838,171.759369 
	C155.328476,163.508255 153.696136,165.771759 163.407196,154.663651 
	C175.874863,140.402359 190.875961,130.037888 209.447617,125.390556 
	C216.402206,123.650261 216.439880,123.792633 217.691696,130.789963 
	C217.896912,131.937103 217.993256,133.110336 218.283218,134.234543 
	C219.251160,137.987198 218.403122,140.333603 214.001587,140.521347 
	C212.372162,140.590836 210.768814,141.272568 208.775635,141.808685 
z"/>
<path fill="#000000" opacity="1.000000" stroke="none" 
	d="
M400.956055,232.665482 
	C405.700012,231.965714 407.940552,233.904800 409.692535,237.854721 
	C417.919403,256.402527 426.457947,274.811981 434.858032,293.283234 
	C435.458069,294.602661 436.509705,295.844147 435.917969,297.775391 
	C432.353119,298.998169 428.551910,298.359467 424.817169,298.250000 
	C422.086456,298.169952 421.186340,295.625488 420.788239,293.734253 
	C418.772858,284.159088 412.511047,282.275970 403.874329,283.236481 
	C399.678680,283.703064 395.278564,283.930450 390.365112,282.639740 
	C392.029633,278.642242 391.805695,273.653198 397.224915,272.755981 
	C401.431824,272.059448 405.780060,272.216309 410.978638,271.946442 
	C407.535126,264.081238 404.264435,256.610779 400.341583,247.650757 
	C397.273407,254.913345 394.815857,260.797211 392.304962,266.658203 
	C388.702759,275.066406 384.767975,283.347443 381.549957,291.899078 
	C379.689148,296.844055 377.076630,299.325958 371.671967,298.477142 
	C369.749207,298.175171 367.693909,298.901764 365.793579,297.846771 
	C364.931793,296.253357 365.949402,294.972931 366.534363,293.661774 
	C374.735596,275.279663 383.095642,256.966431 391.073608,238.488159 
	C393.037201,233.940094 395.659515,231.865295 400.956055,232.665482 
z"/>
<path fill="#000000" opacity="1.000000" stroke="none" 
	d="
M110.889244,244.310699 
	C107.405869,244.322098 104.390114,244.531998 101.410164,244.293869 
	C97.482857,243.980026 96.181877,245.505173 96.233833,249.440018 
	C96.420868,263.603455 96.359932,277.771179 96.260887,291.936371 
	C96.245941,294.073029 97.429352,297.211823 94.422028,298.006958 
	C91.091576,298.887512 87.387054,299.064240 84.097046,297.762329 
	C82.138924,296.987457 82.775223,294.544037 82.768066,292.780365 
	C82.710625,278.614624 82.552315,264.445953 82.790718,250.284317 
	C82.867912,245.698669 81.441643,243.917084 76.820023,244.276642 
	C73.011757,244.572906 69.159248,244.302094 65.326363,244.279892 
	C60.744701,244.253357 61.770897,240.803696 61.662544,238.146866 
	C61.552525,235.449265 61.290676,232.666138 65.445389,232.682022 
	C81.610764,232.743835 97.776901,232.745178 113.941963,232.644211 
	C117.561806,232.621613 118.127792,234.740601 117.906540,237.493317 
	C117.689545,240.192978 119.265427,243.971725 114.371666,244.264236 
	C113.374702,244.323822 112.372559,244.296890 110.889244,244.310699 
z"/>
<path fill="#000000" opacity="1.000000" stroke="none" 
	d="
M208.335800,256.000153 
	C208.332672,268.802582 208.123734,281.110016 208.424240,293.404999 
	C208.549454,298.527740 205.727829,298.543243 202.138229,298.422638 
	C198.540771,298.301697 194.711472,299.285889 194.782257,293.308258 
	C195.000763,274.857239 195.021164,256.400330 194.797989,237.949600 
	C194.721970,231.665024 198.785400,232.890976 202.492096,232.627991 
	C206.546143,232.340393 208.711395,233.346909 208.423172,238.049194 
	C208.067841,243.846191 208.336548,249.681427 208.335800,256.000153 
z"/>
<path fill="#000000" opacity="1.000000" stroke="none" 
	d="
M316.889709,216.020462 
	C316.045044,215.198700 315.326721,214.695465 315.533417,213.711273 
	C328.012482,209.817856 337.446564,213.995239 342.327423,225.907425 
	C336.461334,226.456009 330.862366,227.431595 325.949188,222.835907 
	C323.294739,220.352936 320.113800,218.432800 316.889709,216.020462 
z"/>
<path fill="#000000" opacity="1.000000" stroke="none" 
	d="
M129.049225,333.638794 
	C126.223724,335.131775 125.274300,333.553345 124.446968,331.475372 
	C123.666298,329.514648 123.474319,327.270386 121.533890,325.327759 
	C120.518265,327.725281 119.663010,329.966827 118.630707,332.123627 
	C117.394363,334.706726 115.166130,335.442200 113.867332,332.738464 
	C111.695160,328.216583 109.847252,323.454285 108.650673,317.696655 
	C115.132576,318.149597 113.019127,324.547180 116.298767,326.576202 
	C117.947266,324.828583 118.049179,322.391266 119.016312,320.348572 
	C119.570923,319.177185 119.843140,317.705963 121.558563,317.673981 
	C123.444908,317.638763 123.978722,319.045990 124.545753,320.489685 
	C125.321671,322.465210 125.577675,324.683197 127.206161,326.415649 
	C130.427765,324.375336 128.536942,318.097260 134.888336,317.541351 
	C133.434891,323.483246 131.285309,328.402252 129.049225,333.638794 
z"/>
<path fill="#000000" opacity="1.000000" stroke="none" 
	d="
M161.692749,329.750977 
	C161.690964,326.457306 161.664703,323.627930 161.713394,320.799835 
	C161.735535,319.513824 161.490784,317.977539 163.315186,317.618042 
	C164.821426,317.321198 165.847198,318.100830 166.609451,319.336700 
	C167.985687,321.568024 169.378723,323.788971 170.913071,326.252441 
	C173.588974,324.436432 174.315643,321.739075 175.856476,319.675568 
	C176.679733,318.572998 177.546265,317.537537 179.116592,317.888397 
	C180.837875,318.272980 180.830658,319.768372 180.887421,321.061218 
	C181.040680,324.550781 181.130508,328.044830 181.150299,331.537628 
	C181.158218,332.935120 180.783020,334.325531 178.970612,334.229065 
	C177.459656,334.148712 177.263763,332.838837 177.131119,331.675751 
	C176.947098,330.062286 176.864914,328.437195 176.727203,326.663544 
	C173.774658,327.716278 174.335266,331.693848 171.286865,332.354462 
	C168.312103,331.413635 168.463837,327.596252 165.852203,326.239929 
	C164.705505,328.765594 167.050858,332.596771 163.736267,333.767120 
	C161.434143,334.579987 162.009048,331.681427 161.692749,329.750977 
z"/>
<path fill="#000000" opacity="1.000000" stroke="none" 
	d="
M211.166931,322.782043 
	C212.415512,324.337952 213.247116,325.824188 215.702667,326.934082 
	C215.702667,324.373108 215.666443,322.160583 215.719070,319.950134 
	C215.742844,318.951477 215.883575,317.873566 217.217911,317.768799 
	C218.773697,317.646667 219.251068,318.687775 219.260483,319.973724 
	C219.294342,324.600983 219.273773,329.228638 219.273773,334.463867 
	C212.992233,334.262909 212.015701,327.856659 207.433914,325.493774 
	C207.228546,327.814819 207.102142,330.035034 206.807053,332.232574 
	C206.667526,333.271454 206.026779,334.119934 204.786362,333.967133 
	C203.834793,333.849915 203.361115,333.081512 203.280014,332.234344 
	C202.867096,327.921356 202.747528,323.573120 203.467026,319.310242 
	C203.879700,316.865143 205.782333,317.218201 207.238953,318.475739 
	C208.613312,319.662231 209.722641,321.155762 211.166931,322.782043 
z"/>
<path fill="#000000" opacity="1.000000" stroke="none" 
	d="
M356.897705,327.667664 
	C353.728333,329.273682 354.148163,330.272217 357.050964,330.859497 
	C359.324890,331.319580 362.069305,330.095123 364.229919,333.093506 
	C360.318634,336.005371 356.151703,335.270264 352.376923,334.193024 
	C349.051300,333.243927 350.419830,329.765442 350.126312,327.277161 
	C350.087616,326.949036 350.122437,326.611969 350.126556,326.279083 
	C350.239655,317.158173 352.152344,315.602417 361.156403,317.298767 
	C362.163208,317.488464 363.201813,317.693298 363.254181,318.978729 
	C363.304962,320.225677 362.405670,320.723846 361.347321,320.851013 
	C360.195068,320.989441 359.022491,320.948578 357.863068,321.040161 
	C356.743774,321.128571 355.456055,320.911224 354.867737,322.595734 
	C356.463348,325.403809 360.475189,322.622620 362.141876,325.510101 
	C361.429077,328.354187 358.886353,326.946564 356.897705,327.667664 
z"/>
<path fill="#000000" opacity="1.000000" stroke="none" 
	d="
M303.037537,333.060181 
	C301.808472,334.182373 300.790375,334.528687 299.130371,333.333649 
	C300.355316,328.021088 303.265350,323.217346 305.933167,318.383728 
	C306.934662,316.569214 309.173706,317.089081 310.001282,318.799500 
	C312.353882,323.661682 315.262909,328.307220 317.109863,334.375763 
	C311.986359,334.179962 308.043640,327.799469 303.037537,333.060181 
z"/>
<path fill="#000000" opacity="1.000000" stroke="none" 
	d="
M264.416382,321.636047 
	C263.819550,324.896362 266.248138,323.585480 267.542633,323.922455 
	C269.158661,324.343140 271.389435,323.621674 271.584076,326.484650 
	C269.397095,328.871704 265.584534,326.031921 263.379395,329.002014 
	C265.333710,332.944366 270.657166,328.958008 272.725586,333.137787 
	C269.015137,335.664978 265.186890,334.993256 261.368164,334.249542 
	C260.486725,334.077881 259.873749,333.424438 259.866058,332.508911 
	C259.828766,328.038574 259.767242,323.565369 259.897186,319.098480 
	C259.937988,317.696075 261.347717,317.367401 262.514130,317.294281 
	C264.661713,317.159698 266.822296,317.088287 268.971069,317.166229 
	C270.397919,317.217987 272.350800,317.078461 272.433533,319.105804 
	C272.521790,321.267303 270.551697,320.959930 269.126678,321.093231 
	C267.648315,321.231567 266.164703,321.314240 264.416382,321.636047 
z"/>
<path fill="#000000" opacity="1.000000" stroke="none" 
	d="
M241.878815,320.000977 
	C247.818314,316.341461 251.983780,316.568481 255.300568,320.469879 
	C254.037842,322.967651 252.078903,321.252533 250.497208,321.133636 
	C247.771576,320.928711 245.555161,321.413605 244.200714,324.048615 
	C243.216507,325.963379 243.751938,327.689178 245.010696,329.120300 
	C246.903717,331.272522 249.190201,331.542480 251.477875,330.115662 
	C252.712067,328.066559 249.651154,327.739044 250.326431,325.825226 
	C252.393219,324.780243 254.866272,323.963196 255.934723,326.929199 
	C256.899323,329.606934 256.817139,332.687195 253.335205,334.048737 
	C249.050934,335.723969 245.035324,335.153442 241.912704,331.708618 
	C238.669403,328.130646 238.972763,324.170013 241.878815,320.000977 
z"/>
<path fill="#000000" opacity="1.000000" stroke="none" 
	d="
M193.933319,318.320618 
	C196.490509,323.472900 198.810898,328.364929 201.131302,333.256989 
	C200.928558,333.814240 200.725815,334.371490 200.523071,334.928772 
	C194.781052,330.097443 189.136948,329.900970 183.363403,334.578552 
	C184.748566,328.366211 187.627151,323.571625 190.190567,318.658447 
	C190.910889,317.277863 192.362122,317.320343 193.933319,318.320618 
z"/>
<path fill="#000000" opacity="1.000000" stroke="none" 
	d="
M237.978668,330.127655 
	C238.207169,331.668243 239.563583,333.046631 237.786575,333.968140 
	C236.760483,334.500244 235.953110,333.813538 235.175919,333.092255 
	C231.796585,329.956085 228.451538,330.172424 225.232880,333.358002 
	C224.164780,334.415131 223.050537,334.803314 220.955612,333.484833 
	C223.273087,328.759308 225.378601,323.794098 228.095230,319.189392 
	C229.619080,316.606506 231.737717,317.438080 233.004684,319.943329 
	C234.652863,323.202393 236.228897,326.497955 237.978668,330.127655 
z"/>
<path fill="#000000" opacity="1.000000" stroke="none" 
	d="
M147.411942,320.835266 
	C144.968994,321.549591 142.451126,319.859741 140.445740,322.054932 
	C142.073196,325.674225 146.819946,322.381073 148.487579,325.958405 
	C146.642548,328.892700 142.124130,325.850800 140.384491,329.362946 
	C142.988281,332.506226 147.620316,329.071075 150.181152,333.080353 
	C146.499588,336.190643 142.251434,334.795563 138.571930,334.246887 
	C135.529999,333.793213 137.059158,330.394623 136.707748,328.265320 
	C136.600861,327.617645 136.690247,326.937775 136.687866,326.272644 
	C136.654694,316.968750 137.597412,316.140656 146.886963,317.283478 
	C147.893280,317.407257 148.984848,317.489410 149.316635,318.629822 
	C149.676010,319.864960 148.771240,320.395813 147.411942,320.835266 
z"/>
<path fill="#000000" opacity="1.000000" stroke="none" 
	d="
M369.615601,317.937622 
	C371.844574,317.786194 373.677399,317.620758 375.486877,317.759766 
	C376.965271,317.873383 378.795959,318.251801 378.414581,320.274231 
	C378.056244,322.174500 376.363281,321.457458 375.125122,321.195221 
	C373.509949,320.853210 371.885895,320.248047 370.763977,322.245209 
	C371.629272,324.334442 373.698425,324.221893 375.336578,324.645386 
	C378.120941,325.365234 379.836060,326.854401 379.615875,329.837646 
	C379.399719,332.766968 377.434540,334.210938 374.718750,334.642853 
	C371.368988,335.175598 368.211731,334.936249 365.829102,331.805267 
	C368.434723,328.175446 372.420929,333.016937 375.057739,329.783691 
	C374.405945,327.707458 372.231506,328.014496 370.730988,327.412506 
	C365.140259,325.169434 364.595062,322.025269 369.615601,317.937622 
z"/>
<path fill="#000000" opacity="1.000000" stroke="none" 
	d="
M331.795654,322.371948 
	C332.035492,320.426147 331.176514,317.983276 333.530731,317.936096 
	C336.408264,317.878448 335.139374,320.582794 335.452209,322.158173 
	C336.099762,325.419312 334.007507,330.784790 339.607880,330.612061 
	C344.805145,330.451721 342.488708,325.317261 343.086517,322.216919 
	C343.406555,320.557098 342.509521,317.889008 345.075897,317.821991 
	C348.206451,317.740204 347.073883,320.652191 347.234863,322.411957 
	C347.400543,324.222809 347.363007,326.089142 347.124176,327.892792 
	C346.539276,332.309937 343.473907,335.032043 339.454010,334.913971 
	C335.071289,334.785217 332.208160,331.945251 331.860413,327.292816 
	C331.748932,325.801880 331.811646,324.297913 331.795654,322.371948 
z"/>
<path fill="#000000" opacity="1.000000" stroke="none" 
	d="
M293.323639,333.591583 
	C291.672791,334.493317 290.315491,334.485352 289.539520,333.092499 
	C286.904755,328.362885 284.369019,323.575562 282.805267,317.410065 
	C289.540070,318.335266 288.055389,325.088379 291.671021,327.374512 
	C295.145386,325.125427 293.510376,318.462646 300.176239,317.713074 
	C298.713898,323.811676 296.059143,328.529327 293.323639,333.591583 
z"/>
<path fill="#000000" opacity="1.000000" stroke="none" 
	d="
M318.629761,321.065186 
	C318.721680,319.126343 318.816803,317.390442 320.964539,317.671204 
	C322.846222,317.917236 322.322510,319.647919 322.359436,320.898773 
	C322.403534,322.393097 322.437988,323.898315 322.312164,325.384888 
	C322.019531,328.842773 322.653076,331.362579 326.998291,331.005798 
	C328.264038,330.901917 330.008911,330.999908 329.962158,332.831177 
	C329.906586,335.010315 327.998901,334.609497 326.565674,334.670380 
	C318.698822,335.004333 318.526886,334.846436 318.484070,326.936005 
	C318.474182,325.109039 318.571411,323.281494 318.629761,321.065186 
z"/>
<path fill="#000000" opacity="1.000000" stroke="none" 
	d="
M239.134552,131.429047 
	C238.491241,128.992264 237.702866,126.949173 238.307114,124.384216 
	C242.211380,123.777382 245.452911,125.434830 248.880035,127.418510 
	C247.415237,130.550613 244.365387,131.461975 242.108276,133.231644 
	C240.498871,134.493469 239.808121,133.097702 239.134552,131.429047 
z"/>
</svg>