<svg version="1.1" id="Layer_1" xmlns="http://www.w3.org/2000/svg" xmlns:xlink="http://www.w3.org/1999/xlink" x="0px" y="0px"
	 width="100%" viewBox="0 0 848 848" enable-background="new 0 0 848 848" xml:space="preserve">
<path fill="#000000" opacity="1.000000" stroke="none" 
	d="
M418.999939,481.313354 
	C407.506134,481.312408 396.507843,481.127899 385.520660,481.396149 
	C380.841949,481.510406 380.453949,479.134003 380.579285,475.514923 
	C380.698944,472.059601 380.219971,468.838867 385.499512,469.028046 
	C396.800171,469.432922 408.125977,469.191040 419.420288,469.691986 
	C424.718811,469.927002 425.754059,467.864441 425.747437,463.020264 
	C425.691437,422.044128 425.699036,381.066162 426.052704,340.091858 
	C426.330078,307.958344 426.712311,275.814758 427.836945,243.703278 
	C428.592010,222.144196 430.178314,200.590179 432.793732,179.145203 
	C432.849609,178.687057 433.180664,178.262466 433.373535,177.843491 
	C435.222656,177.731277 435.186493,179.101288 435.241791,180.185516 
	C435.817383,191.471237 436.686493,202.749863 437.536865,214.004150 
	C439.102356,234.720901 439.825104,255.469284 441.018890,276.197388 
	C441.143341,278.358215 441.227325,280.523621 441.250244,282.687714 
	C441.883972,342.642029 442.574554,402.596008 442.349609,462.555664 
	C442.324768,469.177826 442.364288,469.242035 448.804352,469.312866 
	C460.293243,469.439301 471.789337,469.725159 483.269470,469.434570 
	C487.817108,469.319458 488.491760,471.123566 488.409241,474.963440 
	C488.325745,478.849274 488.278381,481.507782 482.961090,481.436310 
	C461.810638,481.152008 440.654175,481.315430 418.999939,481.313354 
z"/>
<path fill="#000000" opacity="1.000000" stroke="none" 
	d="
M338.401733,413.517395 
	C325.483734,394.326019 318.799347,373.376282 318.976868,350.723145 
	C319.278809,312.187622 335.662933,281.822052 367.550110,260.014099 
	C381.042725,250.786377 395.918030,244.921783 411.932190,242.028549 
	C415.479034,249.800827 413.793457,253.566895 406.206543,255.432770 
	C371.197052,264.042786 341.904602,296.388947 336.133575,332.875092 
	C330.311462,369.684692 340.921326,400.940582 368.339142,426.191620 
	C379.902161,436.840851 393.470123,444.199066 408.939514,447.641083 
	C411.424072,448.193909 412.325562,449.406616 412.204315,451.747375 
	C412.067719,454.385223 412.303711,457.080109 410.705841,460.165802 
	C380.363342,454.556122 356.466125,438.965454 338.401733,413.517395 
z"/>
<path fill="#000000" opacity="1.000000" stroke="none" 
	d="
M533.675842,342.972046 
	C531.924622,320.120270 523.168518,300.686584 508.112183,284.237030 
	C494.793213,269.685608 478.758514,259.326843 459.170685,255.050201 
	C453.554962,253.824127 452.325531,250.206467 454.654327,242.158585 
	C467.120117,243.645294 478.959595,247.392471 489.876404,253.552551 
	C520.807617,271.006165 541.516113,296.431763 547.621704,331.951324 
	C554.705200,373.159973 542.038086,407.685638 510.279449,435.088287 
	C496.643555,446.853882 481.027283,454.637115 463.496948,458.587524 
	C460.837585,459.186798 457.468658,461.184418 456.335907,456.369019 
	C455.110382,451.159515 456.299408,448.723602 461.088074,447.337036 
	C484.341858,440.603943 503.062744,427.456879 516.890442,407.583832 
	C527.078491,392.941559 532.911621,376.728851 533.759644,358.769440 
	C534.002075,353.634857 534.931458,348.538452 533.675842,342.972046 
z"/>
<path fill="#000000" opacity="1.000000" stroke="none" 
	d="
M488.927277,603.941406 
	C472.431030,576.078796 489.452362,542.597595 523.421143,537.582275 
	C535.921875,535.736633 548.012878,536.536743 559.477783,541.991516 
	C576.502441,550.091370 586.283264,563.533630 585.896057,582.594177 
	C585.500610,602.062988 574.793457,615.267883 556.726440,621.445740 
	C533.759827,629.299133 512.101318,626.921753 493.579651,609.615173 
	C491.893738,608.039795 490.595520,606.049622 488.927277,603.941406 
M562.562317,601.023987 
	C566.944763,594.334717 567.968140,586.867188 567.638000,579.088318 
	C566.871582,561.028687 551.932373,545.817322 534.555176,545.398865 
	C520.931030,545.070801 508.818146,553.206848 503.923706,565.973511 
	C498.331879,580.559204 502.282501,599.636230 512.699768,608.351196 
	C529.026917,622.010376 549.671265,619.195129 562.562317,601.023987 
z"/>
<path fill="#000000" opacity="1.000000" stroke="none" 
	d="
M325.562866,543.286743 
	C339.456848,551.479004 348.550812,562.716370 349.236115,578.915833 
	C350.145203,600.404968 335.899750,618.428772 314.935059,623.267212 
	C295.900543,627.660156 277.931885,625.840027 261.968353,613.539612 
	C241.477371,597.750671 240.983597,565.008728 261.382141,549.136292 
	C281.202301,533.713806 302.821014,533.115234 325.562866,543.286743 
M271.630585,602.845642 
	C285.304932,621.186279 312.581238,621.180664 324.843994,602.834717 
	C334.738647,588.031616 332.291901,566.559021 319.316803,554.327576 
	C302.018463,538.020752 273.377991,545.656128 266.492065,568.398499 
	C262.852783,580.418030 264.456818,591.682495 271.630585,602.845642 
z"/>
<path fill="#000000" opacity="1.000000" stroke="none" 
	d="
M372.842957,596.835205 
	C364.182098,571.677734 376.854645,547.658691 402.688080,539.676086 
	C416.777039,535.322510 430.858856,535.815735 444.888245,539.920410 
	C454.819763,542.826050 455.372437,544.335327 450.011078,554.267273 
	C443.963654,550.985779 437.727448,548.029236 430.777710,546.906921 
	C409.292328,543.437317 389.308990,553.319824 388.622253,579.783691 
	C388.089935,600.297607 402.241333,614.947754 422.236938,615.677490 
	C426.886566,615.847168 431.531281,615.859192 436.109070,614.589844 
	C439.770966,613.574463 441.714935,611.704468 441.604889,607.599731 
	C441.399750,599.945801 441.788452,592.272583 441.470428,584.626465 
	C441.317993,580.961182 442.663208,579.912598 445.988373,579.960083 
	C462.418976,580.195068 459.029022,578.441711 459.318726,592.510803 
	C459.479828,600.333801 459.296722,608.163330 459.361145,615.989197 
	C459.381287,618.439758 458.758972,619.948364 456.065063,620.664490 
	C439.658081,625.025818 423.129242,627.592957 406.349731,623.250977 
	C391.558228,619.423401 379.437378,611.857910 372.842957,596.835205 
z"/>
<path fill="#000000" opacity="1.000000" stroke="none" 
	d="
M617.903442,622.419128 
	C615.791809,621.695618 614.044434,621.137390 612.362915,620.423889 
	C602.685242,616.317505 602.374634,615.024353 609.116577,605.852356 
	C614.826416,609.037231 620.648804,612.190979 627.182251,613.705078 
	C633.602600,615.193054 640.043274,615.643921 646.450073,614.111694 
	C653.083008,612.525391 657.474548,608.111877 657.412354,602.722412 
	C657.345398,596.917908 653.609985,593.188721 648.551758,591.124207 
	C640.707275,587.922546 632.656128,585.230896 624.770630,582.124939 
	C620.123596,580.294556 615.608215,578.117859 612.114563,574.341431 
	C603.532471,565.064819 604.632935,551.567566 614.770630,544.138062 
	C628.440002,534.120361 652.637695,536.430481 664.780823,543.815369 
	C669.655029,546.779541 664.832581,550.331665 663.949951,553.356750 
	C663.063354,556.395386 660.920288,554.408691 659.190063,553.469788 
	C650.974792,549.011719 642.355225,546.423401 632.907288,548.404785 
	C628.377930,549.354675 624.752686,551.571716 623.884033,556.529907 
	C623.094543,561.036377 626.123962,563.618286 629.342468,565.777344 
	C634.225647,569.053101 639.865845,570.680481 645.330994,572.693481 
	C652.653198,575.390442 660.190247,577.643127 666.452515,582.643921 
	C678.241577,592.058044 677.795227,609.022583 665.375000,617.615479 
	C655.128113,624.704712 643.540344,626.235962 631.489563,624.972290 
	C627.060608,624.507874 622.552856,624.085022 617.903442,622.419128 
z"/>
<path fill="#000000" opacity="1.000000" stroke="none" 
	d="
M193.349670,570.000122 
	C193.350174,582.657898 193.499405,594.818481 193.270187,606.971924 
	C193.189514,611.249329 194.409012,612.900574 198.901733,612.780701 
	C209.386734,612.501038 219.894562,612.959961 230.371902,612.561096 
	C235.585968,612.362610 235.865967,615.024902 236.050888,618.947693 
	C236.252487,623.224609 233.851898,623.371887 230.702103,623.358215 
	C214.047897,623.286072 197.392273,623.207642 180.739548,623.373230 
	C176.758926,623.412781 175.572678,622.008850 175.592194,618.153198 
	C175.716080,593.671692 175.729111,569.188904 175.580429,544.707642 
	C175.556198,540.719543 176.924423,539.376282 180.787415,539.623352 
	C184.735138,539.875854 188.711594,539.679321 193.349426,539.679321 
	C193.349426,549.965698 193.349426,559.732849 193.349670,570.000122 
z"/>
<path fill="#000000" opacity="1.000000" stroke="none" 
	d="
M442.608215,693.981628 
	C433.985413,690.846313 430.600037,684.610718 432.678406,676.306030 
	C434.686462,668.282104 440.302032,665.535522 452.081177,667.048096 
	C453.182800,664.086853 452.595306,660.933533 452.647858,657.885437 
	C452.694916,655.155945 453.759857,653.917725 456.516327,653.967468 
	C459.235535,654.016602 460.351074,655.255310 460.333344,657.978821 
	C460.265076,668.460693 460.311096,678.943298 460.302185,689.425598 
	C460.300568,691.342957 459.946411,693.878479 457.598480,693.147766 
	C452.479401,691.554504 447.920288,695.004639 442.608215,693.981628 
M452.287354,684.443298 
	C452.963745,682.532898 452.903687,680.574768 452.794861,678.583069 
	C452.641510,675.776489 451.245361,674.077209 448.690308,673.000122 
	C445.910767,671.828308 443.866852,673.016357 442.004669,674.783203 
	C438.805084,677.818848 438.675476,682.041260 441.562531,685.421387 
	C444.252228,688.570496 447.815674,688.464600 452.287354,684.443298 
z"/>
<path fill="#000000" opacity="1.000000" stroke="none" 
	d="
M357.082703,661.737122 
	C353.213287,661.583984 348.323120,659.654907 347.260254,664.382019 
	C346.107178,669.510193 351.646179,669.222168 354.780548,670.408508 
	C359.123932,672.052429 363.996796,672.860352 366.103210,677.716553 
	C369.672333,685.945068 364.363586,693.237549 354.001251,694.107666 
	C350.046417,694.439880 346.093140,693.635010 342.337311,692.089844 
	C338.097870,690.345703 337.841125,687.807312 340.343811,684.455933 
	C343.200806,684.421509 345.266907,686.063660 347.635345,686.756653 
	C349.739807,687.372375 351.840302,688.008728 353.996429,687.499390 
	C356.288330,686.957947 358.773102,686.127686 359.225037,683.483887 
	C359.728943,680.535950 357.254059,679.603577 355.031281,678.769165 
	C352.075989,677.659729 349.067566,676.684937 346.144135,675.499023 
	C340.697418,673.289795 338.397339,669.968933 338.691193,665.002502 
	C338.973480,660.231873 341.968750,656.631287 347.283691,655.265137 
	C351.867035,654.086914 356.518433,654.134705 360.976410,655.994995 
	C365.652863,657.946594 365.917847,659.076050 362.978271,663.825256 
	C360.905396,663.910156 359.369537,662.339539 357.082703,661.737122 
z"/>
<path fill="#000000" opacity="1.000000" stroke="none" 
	d="
M513.931458,673.556580 
	C516.417847,681.184448 514.994568,687.559692 510.276367,691.091492 
	C505.103180,694.963806 497.529724,695.282104 491.978699,691.860413 
	C485.207428,687.686584 483.471375,678.204895 488.307465,671.809509 
	C493.329010,665.168884 504.359589,663.945557 510.537842,669.423096 
	C511.761658,670.508118 512.689087,671.927368 513.931458,673.556580 
M493.323608,681.142029 
	C494.869202,686.687256 497.413055,688.573853 502.022064,687.593201 
	C506.112823,686.722778 508.147919,683.611328 507.659210,678.974609 
	C507.243805,675.033386 504.127106,672.252136 500.262909,672.374268 
	C496.073517,672.506714 493.735687,675.176208 493.323608,681.142029 
z"/>
<path fill="#000000" opacity="1.000000" stroke="none" 
	d="
M406.610962,685.218933 
	C408.712067,688.161377 411.459930,688.270264 413.992676,687.285706 
	C416.726349,686.223206 417.630127,683.600769 417.640717,680.737976 
	C417.653656,677.244995 417.730438,673.750793 417.659851,670.259521 
	C417.609222,667.753723 418.624786,666.666809 421.198944,666.669189 
	C423.738281,666.671570 424.817841,667.759888 424.897308,670.223755 
	C425.137299,677.665527 424.141968,685.092529 425.171448,693.410461 
	C419.032104,692.160645 413.550964,693.816650 408.040985,693.992676 
	C402.183777,694.179749 398.825500,689.848267 398.679749,683.848755 
	C398.574768,679.526611 398.688354,675.199707 398.656647,670.875244 
	C398.639099,668.483582 398.947540,666.637451 402.106018,666.686829 
	C405.374969,666.738037 405.197540,668.848694 405.358551,671.080688 
	C405.690430,675.679993 404.397797,680.408081 406.610962,685.218933 
z"/>
<path fill="#000000" opacity="1.000000" stroke="none" 
	d="
M383.350891,680.833435 
	C383.558777,687.354553 383.558777,687.354553 390.532104,687.518616 
	C392.304810,691.481812 390.487549,693.426453 386.691772,694.129639 
	C380.921631,695.198547 376.032684,691.361145 375.699707,685.476501 
	C375.549591,682.823303 375.638885,680.155151 375.659790,677.494141 
	C375.678467,675.113220 375.847198,672.767578 372.622711,672.125610 
	C371.322235,671.866699 370.920929,670.547363 371.092865,669.326538 
	C371.199707,668.567749 371.650024,667.285767 372.075012,667.230591 
	C377.041748,666.585571 374.847382,656.275391 382.747437,659.701233 
	C383.650177,660.767700 383.283264,662.335266 383.354431,663.790344 
	C383.443451,665.609985 384.263550,666.547058 386.108582,666.584412 
	C388.328094,666.629395 390.545319,666.555725 390.397949,669.875671 
	C390.246521,673.287659 387.687378,672.543945 385.696106,672.865356 
	C385.213470,672.943298 384.735596,673.050964 384.168610,673.161987 
	C382.640961,675.441528 383.644562,678.005188 383.350891,680.833435 
z"/>
<path fill="#000000" opacity="1.000000" stroke="none" 
	d="
M470.012451,679.946716 
	C470.031403,676.478210 470.053986,673.496216 470.088745,670.514404 
	C470.118927,667.925781 471.199493,666.606079 474.027344,666.666626 
	C476.769775,666.725342 477.349243,668.197815 477.337128,670.485596 
	C477.302917,676.947571 477.303467,683.409912 477.322235,689.872009 
	C477.328430,692.013306 476.640778,693.313599 474.194366,693.302490 
	C472.076416,693.292908 470.664459,692.780396 470.570282,690.345703 
	C470.442352,687.039429 470.209351,683.737305 470.012451,679.946716 
z"/>
<path fill="#000000" opacity="1.000000" stroke="none" 
	d="
M475.533356,662.482910 
	C471.767761,663.018433 469.532990,661.803223 469.849274,658.107605 
	C470.099091,655.188171 472.351685,654.581543 474.911743,654.762939 
	C476.626923,654.884521 477.634369,655.923584 478.058624,657.435913 
	C478.661774,659.585999 477.990662,661.309631 475.533356,662.482910 
z"/>
</svg>